<svg width="256" height="256" version="1.1" viewBox="0 0 100 100" xmlns="http://www.w3.org/2000/svg">
<g stroke-linecap="round">
<circle cx="50" cy="50" r="50"/>
<g transform="translate(-24.797 -66.57)" stroke="#000" stroke-width="2.1739">
<path d="m123.71 116.57a48.913 48.913 0 0 1 -48.913 48.913l-2e-6 -48.913z" fill="#f00"/>
<path transform="scale(-1,1)" d="m-25.88 116.57a48.913 48.913 0 0 1 -48.913 48.913l-1e-6 -48.913z" fill="#0f0"/>
<path transform="scale(-1)" d="m-25.88-116.57a48.913 48.913 0 0 1 -48.913 48.913l-1e-6 -48.913z" fill="#00f"/>
<path transform="scale(1,-1)" d="m123.71-116.57a48.913 48.913 0 0 1 -48.913 48.913l-2e-6 -48.913z" fill="#ff0"/>
</g>
<circle cx="50" cy="50" r="28.653" stroke-width=".43234"/>
</g>
</svg>
